<svg xmlns="http://www.w3.org/2000/svg" version="1.1" xmlns:xlink="http://www.w3.org/1999/xlink" xmlns:svgjs="http://svgjs.dev/svgjs" width="1440" height="560" preserveAspectRatio="none" viewBox="0 0 1440 560"><g mask="url(&quot;#SvgjsMask1010&quot;)" fill="none"><rect width="1440" height="560" x="0" y="0" fill="#0e2a47"></rect><path d="M-96.42 349.28L-96.42 349.28" stroke="#132e65" stroke-width="1.5"></path><path d="M-96.42 349.28L74.26 366.74" stroke="#132e65" stroke-width="1.5"></path><path d="M-96.42 349.28L-41.82 522.76" stroke="#132e65" stroke-width="1.5"></path><path d="M-96.42 349.28L97.87 495.76" stroke="#132e65" stroke-width="1.5"></path><path d="M-96.42 349.28L233.33 393.13" stroke="#132e65" stroke-width="1.5"></path><path d="M-41.82 522.76L-41.82 522.76" stroke="#132e65" stroke-width="1.5"></path><path d="M-41.82 522.76L97.87 495.76" stroke="#132e65" stroke-width="1.5"></path><path d="M-41.82 522.76L-82.48 685.02" stroke="#132e65" stroke-width="1.5"></path><path d="M-41.82 522.76L98.98 656.46" stroke="#132e65" stroke-width="1.5"></path><path d="M-41.82 522.76L74.26 366.74" stroke="#132e65" stroke-width="1.5"></path><path d="M-82.48 685.02L-82.48 685.02" stroke="#132e65" stroke-width="1.5"></path><path d="M-82.48 685.02L98.98 656.46" stroke="#132e65" stroke-width="1.5"></path><path d="M-82.48 685.02L97.87 495.76" stroke="#132e65" stroke-width="1.5"></path><path d="M74.26 366.74L74.26 366.74" stroke="#132e65" stroke-width="1.5"></path><path d="M74.26 366.74L97.87 495.76" stroke="#132e65" stroke-width="1.5"></path><path d="M74.26 366.74L233.33 393.13" stroke="#132e65" stroke-width="1.5"></path><path d="M97.87 495.76L97.87 495.76" stroke="#132e65" stroke-width="1.5"></path><path d="M97.87 495.76L234.61 551.1" stroke="#132e65" stroke-width="1.5"></path><path d="M97.87 495.76L98.98 656.46" stroke="#132e65" stroke-width="1.5"></path><path d="M97.87 495.76L233.33 393.13" stroke="#132e65" stroke-width="1.5"></path><path d="M97.87 495.76L248.43 661.31" stroke="#132e65" stroke-width="1.5"></path><path d="M98.98 656.46L98.98 656.46" stroke="#132e65" stroke-width="1.5"></path><path d="M98.98 656.46L248.43 661.31" stroke="#132e65" stroke-width="1.5"></path><path d="M98.98 656.46L234.61 551.1" stroke="#132e65" stroke-width="1.5"></path><path d="M233.33 393.13L233.33 393.13" stroke="#132e65" stroke-width="1.5"></path><path d="M233.33 393.13L385.35 396.85" stroke="#132e65" stroke-width="1.5"></path><path d="M233.33 393.13L234.61 551.1" stroke="#132e65" stroke-width="1.5"></path><path d="M234.61 551.1L234.61 551.1" stroke="#132e65" stroke-width="1.5"></path><path d="M234.61 551.1L248.43 661.31" stroke="#132e65" stroke-width="1.5"></path><path d="M234.61 551.1L342.36 688.43" stroke="#132e65" stroke-width="1.5"></path><path d="M248.43 661.31L248.43 661.31" stroke="#132e65" stroke-width="1.5"></path><path d="M248.43 661.31L342.36 688.43" stroke="#132e65" stroke-width="1.5"></path><path d="M248.43 661.31L409.73 544.11" stroke="#132e65" stroke-width="1.5"></path><path d="M385.35 396.85L385.35 396.85" stroke="#132e65" stroke-width="1.5"></path><path d="M385.35 396.85L504.19 350.81" stroke="#132e65" stroke-width="1.5"></path><path d="M385.35 396.85L409.73 544.11" stroke="#132e65" stroke-width="1.5"></path><path d="M385.35 396.85L552.68 519.55" stroke="#132e65" stroke-width="1.5"></path><path d="M385.35 396.85L234.61 551.1" stroke="#132e65" stroke-width="1.5"></path><path d="M385.35 396.85L496.05 668.42" stroke="#132e65" stroke-width="1.5"></path><path d="M409.73 544.11L409.73 544.11" stroke="#132e65" stroke-width="1.5"></path><path d="M409.73 544.11L552.68 519.55" stroke="#132e65" stroke-width="1.5"></path><path d="M342.36 688.43L342.36 688.43" stroke="#132e65" stroke-width="1.5"></path><path d="M504.19 350.81L504.19 350.81" stroke="#132e65" stroke-width="1.5"></path><path d="M504.19 350.81L552.68 519.55" stroke="#132e65" stroke-width="1.5"></path><path d="M504.19 350.81L681.45 406.96" stroke="#132e65" stroke-width="1.5"></path><path d="M552.68 519.55L552.68 519.55" stroke="#132e65" stroke-width="1.5"></path><path d="M552.68 519.55L684.81 521.81" stroke="#132e65" stroke-width="1.5"></path><path d="M552.68 519.55L496.05 668.42" stroke="#132e65" stroke-width="1.5"></path><path d="M496.05 668.42L496.05 668.42" stroke="#132e65" stroke-width="1.5"></path><path d="M496.05 668.42L409.73 544.11" stroke="#132e65" stroke-width="1.5"></path><path d="M496.05 668.42L342.36 688.43" stroke="#132e65" stroke-width="1.5"></path><path d="M496.05 668.42L702.44 680.94" stroke="#132e65" stroke-width="1.5"></path><path d="M496.05 668.42L684.81 521.81" stroke="#132e65" stroke-width="1.5"></path><path d="M711.68 243.28L711.68 243.28" stroke="#132e65" stroke-width="1.5"></path><path d="M711.68 243.28L797.12 229.48" stroke="#132e65" stroke-width="1.5"></path><path d="M711.68 243.28L681.45 406.96" stroke="#132e65" stroke-width="1.5"></path><path d="M711.68 243.28L853.07 340.08" stroke="#132e65" stroke-width="1.5"></path><path d="M711.68 243.28L504.19 350.81" stroke="#132e65" stroke-width="1.5"></path><path d="M711.68 243.28L990.99 253.41" stroke="#132e65" stroke-width="1.5"></path><path d="M711.68 243.28L684.81 521.81" stroke="#132e65" stroke-width="1.5"></path><path d="M681.45 406.96L681.45 406.96" stroke="#132e65" stroke-width="1.5"></path><path d="M681.45 406.96L684.81 521.81" stroke="#132e65" stroke-width="1.5"></path><path d="M681.45 406.96L552.68 519.55" stroke="#132e65" stroke-width="1.5"></path><path d="M681.45 406.96L790.88 547.77" stroke="#132e65" stroke-width="1.5"></path><path d="M684.81 521.81L684.81 521.81" stroke="#132e65" stroke-width="1.5"></path><path d="M684.81 521.81L790.88 547.77" stroke="#132e65" stroke-width="1.5"></path><path d="M702.44 680.94L702.44 680.94" stroke="#132e65" stroke-width="1.5"></path><path d="M702.44 680.94L811.45 676.21" stroke="#132e65" stroke-width="1.5"></path><path d="M702.44 680.94L790.88 547.77" stroke="#132e65" stroke-width="1.5"></path><path d="M702.44 680.94L684.81 521.81" stroke="#132e65" stroke-width="1.5"></path><path d="M797.12 229.48L797.12 229.48" stroke="#132e65" stroke-width="1.5"></path><path d="M797.12 229.48L853.07 340.08" stroke="#132e65" stroke-width="1.5"></path><path d="M853.07 340.08L853.07 340.08" stroke="#132e65" stroke-width="1.5"></path><path d="M853.07 340.08L971.67 404.15" stroke="#132e65" stroke-width="1.5"></path><path d="M790.88 547.77L790.88 547.77" stroke="#132e65" stroke-width="1.5"></path><path d="M790.88 547.77L811.45 676.21" stroke="#132e65" stroke-width="1.5"></path><path d="M790.88 547.77L948.85 499.4" stroke="#132e65" stroke-width="1.5"></path><path d="M811.45 676.21L811.45 676.21" stroke="#132e65" stroke-width="1.5"></path><path d="M811.45 676.21L978.83 698.17" stroke="#132e65" stroke-width="1.5"></path><path d="M811.45 676.21L684.81 521.81" stroke="#132e65" stroke-width="1.5"></path><path d="M938.85 -38.65L938.85 -38.65" stroke="#132e65" stroke-width="1.5"></path><path d="M938.85 -38.65L955.87 86.12" stroke="#132e65" stroke-width="1.5"></path><path d="M938.85 -38.65L1131.75 -101.18" stroke="#132e65" stroke-width="1.5"></path><path d="M938.85 -38.65L990.99 253.41" stroke="#132e65" stroke-width="1.5"></path><path d="M938.85 -38.65L797.12 229.48" stroke="#132e65" stroke-width="1.5"></path><path d="M938.85 -38.65L1144.78 216.62" stroke="#132e65" stroke-width="1.5"></path><path d="M955.87 86.12L955.87 86.12" stroke="#132e65" stroke-width="1.5"></path><path d="M955.87 86.12L990.99 253.41" stroke="#132e65" stroke-width="1.5"></path><path d="M955.87 86.12L797.12 229.48" stroke="#132e65" stroke-width="1.5"></path><path d="M955.87 86.12L1144.78 216.62" stroke="#132e65" stroke-width="1.5"></path><path d="M955.87 86.12L1131.75 -101.18" stroke="#132e65" stroke-width="1.5"></path><path d="M990.99 253.41L990.99 253.41" stroke="#132e65" stroke-width="1.5"></path><path d="M990.99 253.41L971.67 404.15" stroke="#132e65" stroke-width="1.5"></path><path d="M990.99 253.41L1144.78 216.62" stroke="#132e65" stroke-width="1.5"></path><path d="M990.99 253.41L853.07 340.08" stroke="#132e65" stroke-width="1.5"></path><path d="M990.99 253.41L1097.59 409.5" stroke="#132e65" stroke-width="1.5"></path><path d="M971.67 404.15L971.67 404.15" stroke="#132e65" stroke-width="1.5"></path><path d="M971.67 404.15L948.85 499.4" stroke="#132e65" stroke-width="1.5"></path><path d="M971.67 404.15L1097.59 409.5" stroke="#132e65" stroke-width="1.5"></path><path d="M948.85 499.4L948.85 499.4" stroke="#132e65" stroke-width="1.5"></path><path d="M978.83 698.17L978.83 698.17" stroke="#132e65" stroke-width="1.5"></path><path d="M978.83 698.17L1137.83 646.45" stroke="#132e65" stroke-width="1.5"></path><path d="M978.83 698.17L948.85 499.4" stroke="#132e65" stroke-width="1.5"></path><path d="M978.83 698.17L1135.48 558.06" stroke="#132e65" stroke-width="1.5"></path><path d="M1131.75 -101.18L1131.75 -101.18" stroke="#132e65" stroke-width="1.5"></path><path d="M1131.75 -101.18L1294.69 -69.64" stroke="#132e65" stroke-width="1.5"></path><path d="M1131.75 -101.18L1240.09 92.93" stroke="#132e65" stroke-width="1.5"></path><path d="M1131.75 -101.18L1422.41 -78.54" stroke="#132e65" stroke-width="1.5"></path><path d="M1144.78 216.62L1144.78 216.62" stroke="#132e65" stroke-width="1.5"></path><path d="M1144.78 216.62L1269.29 226.88" stroke="#132e65" stroke-width="1.5"></path><path d="M1144.78 216.62L1240.09 92.93" stroke="#132e65" stroke-width="1.5"></path><path d="M1144.78 216.62L1255.35 367.42" stroke="#132e65" stroke-width="1.5"></path><path d="M1097.59 409.5L1097.59 409.5" stroke="#132e65" stroke-width="1.5"></path><path d="M1097.59 409.5L1135.48 558.06" stroke="#132e65" stroke-width="1.5"></path><path d="M1097.59 409.5L1255.35 367.42" stroke="#132e65" stroke-width="1.5"></path><path d="M1097.59 409.5L948.85 499.4" stroke="#132e65" stroke-width="1.5"></path><path d="M1097.59 409.5L1144.78 216.62" stroke="#132e65" stroke-width="1.5"></path><path d="M1135.48 558.06L1135.48 558.06" stroke="#132e65" stroke-width="1.5"></path><path d="M1135.48 558.06L1137.83 646.45" stroke="#132e65" stroke-width="1.5"></path><path d="M1135.48 558.06L1250.53 654.08" stroke="#132e65" stroke-width="1.5"></path><path d="M1137.83 646.45L1137.83 646.45" stroke="#132e65" stroke-width="1.5"></path><path d="M1137.83 646.45L1250.53 654.08" stroke="#132e65" stroke-width="1.5"></path><path d="M1294.69 -69.64L1294.69 -69.64" stroke="#132e65" stroke-width="1.5"></path><path d="M1294.69 -69.64L1422.41 -78.54" stroke="#132e65" stroke-width="1.5"></path><path d="M1294.69 -69.64L1240.09 92.93" stroke="#132e65" stroke-width="1.5"></path><path d="M1240.09 92.93L1240.09 92.93" stroke="#132e65" stroke-width="1.5"></path><path d="M1240.09 92.93L1269.29 226.88" stroke="#132e65" stroke-width="1.5"></path><path d="M1269.29 226.88L1269.29 226.88" stroke="#132e65" stroke-width="1.5"></path><path d="M1255.35 367.42L1255.35 367.42" stroke="#132e65" stroke-width="1.5"></path><path d="M1255.35 367.42L1269.29 226.88" stroke="#132e65" stroke-width="1.5"></path><path d="M1250.53 654.08L1250.53 654.08" stroke="#132e65" stroke-width="1.5"></path><path d="M1422.41 -78.54L1422.41 -78.54" stroke="#132e65" stroke-width="1.5"></path><path d="M1422.41 -78.54L1422.06 102.45" stroke="#132e65" stroke-width="1.5"></path><path d="M1422.41 -78.54L1606.37 -66.59" stroke="#132e65" stroke-width="1.5"></path><path d="M1422.41 -78.54L1573.9 84.96" stroke="#132e65" stroke-width="1.5"></path><path d="M1422.06 102.45L1422.06 102.45" stroke="#132e65" stroke-width="1.5"></path><path d="M1422.06 102.45L1448.46 240.42" stroke="#132e65" stroke-width="1.5"></path><path d="M1422.06 102.45L1573.9 84.96" stroke="#132e65" stroke-width="1.5"></path><path d="M1422.06 102.45L1240.09 92.93" stroke="#132e65" stroke-width="1.5"></path><path d="M1422.06 102.45L1269.29 226.88" stroke="#132e65" stroke-width="1.5"></path><path d="M1422.06 102.45L1294.69 -69.64" stroke="#132e65" stroke-width="1.5"></path><path d="M1448.46 240.42L1448.46 240.42" stroke="#132e65" stroke-width="1.5"></path><path d="M1448.46 240.42L1442.93 372.35" stroke="#132e65" stroke-width="1.5"></path><path d="M1448.46 240.42L1550.08 351.51" stroke="#132e65" stroke-width="1.5"></path><path d="M1442.93 372.35L1442.93 372.35" stroke="#132e65" stroke-width="1.5"></path><path d="M1442.93 372.35L1550.08 351.51" stroke="#132e65" stroke-width="1.5"></path><path d="M1442.93 372.35L1454.6 506.42" stroke="#132e65" stroke-width="1.5"></path><path d="M1454.6 506.42L1454.6 506.42" stroke="#132e65" stroke-width="1.5"></path><path d="M1454.6 506.42L1562.49 516.71" stroke="#132e65" stroke-width="1.5"></path><path d="M1454.6 506.42L1404.7 657.7" stroke="#132e65" stroke-width="1.5"></path><path d="M1454.6 506.42L1550.08 351.51" stroke="#132e65" stroke-width="1.5"></path><path d="M1454.6 506.42L1585.54 687.07" stroke="#132e65" stroke-width="1.5"></path><path d="M1404.7 657.7L1404.7 657.7" stroke="#132e65" stroke-width="1.5"></path><path d="M1404.7 657.7L1250.53 654.08" stroke="#132e65" stroke-width="1.5"></path><path d="M1404.7 657.7L1585.54 687.07" stroke="#132e65" stroke-width="1.5"></path><path d="M1606.37 -66.59L1606.37 -66.59" stroke="#132e65" stroke-width="1.5"></path><path d="M1606.37 -66.59L1573.9 84.96" stroke="#132e65" stroke-width="1.5"></path><path d="M1606.37 -66.59L1422.06 102.45" stroke="#132e65" stroke-width="1.5"></path><path d="M1573.9 84.96L1573.9 84.96" stroke="#132e65" stroke-width="1.5"></path><path d="M1573.9 84.96L1448.46 240.42" stroke="#132e65" stroke-width="1.5"></path><path d="M1550.08 351.51L1550.08 351.51" stroke="#132e65" stroke-width="1.5"></path><path d="M1562.49 516.71L1562.49 516.71" stroke="#132e65" stroke-width="1.5"></path><path d="M1562.49 516.71L1550.08 351.51" stroke="#132e65" stroke-width="1.5"></path><path d="M1562.49 516.71L1585.54 687.07" stroke="#132e65" stroke-width="1.5"></path><path d="M1562.49 516.71L1442.93 372.35" stroke="#132e65" stroke-width="1.5"></path><path d="M1562.49 516.71L1404.7 657.7" stroke="#132e65" stroke-width="1.5"></path><path d="M1562.49 516.71L1448.46 240.42" stroke="#132e65" stroke-width="1.5"></path><path d="M1585.54 687.07L1585.54 687.07" stroke="#132e65" stroke-width="1.5"></path><path d="M1585.54 687.07L1250.53 654.08" stroke="#132e65" stroke-width="1.5"></path><circle r="5" cx="-96.42" cy="349.28" fill="#132e65"></circle><circle r="5" cx="-41.82" cy="522.76" fill="#132e65"></circle><circle r="5" cx="-82.48" cy="685.02" fill="#132e65"></circle><circle r="5" cx="74.26" cy="366.74" fill="#132e65"></circle><circle r="5" cx="97.87" cy="495.76" fill="#132e65"></circle><circle r="5" cx="98.98" cy="656.46" fill="#132e65"></circle><circle r="5" cx="233.33" cy="393.13" fill="#132e65"></circle><circle r="5" cx="234.61" cy="551.1" fill="#132e65"></circle><circle r="5" cx="248.43" cy="661.31" fill="#132e65"></circle><circle r="5" cx="385.35" cy="396.85" fill="#132e65"></circle><circle r="5" cx="409.73" cy="544.11" fill="#132e65"></circle><circle r="5" cx="342.36" cy="688.43" fill="#132e65"></circle><circle r="5" cx="504.19" cy="350.81" fill="#132e65"></circle><circle r="5" cx="552.68" cy="519.55" fill="#132e65"></circle><circle r="5" cx="496.05" cy="668.42" fill="#132e65"></circle><circle r="5" cx="711.68" cy="243.28" fill="#132e65"></circle><circle r="5" cx="681.45" cy="406.96" fill="#132e65"></circle><circle r="5" cx="684.81" cy="521.81" fill="#132e65"></circle><circle r="5" cx="702.44" cy="680.94" fill="#132e65"></circle><circle r="5" cx="797.12" cy="229.48" fill="#132e65"></circle><circle r="5" cx="853.07" cy="340.08" fill="#132e65"></circle><circle r="5" cx="790.88" cy="547.77" fill="#132e65"></circle><circle r="5" cx="811.45" cy="676.21" fill="#132e65"></circle><circle r="5" cx="938.85" cy="-38.65" fill="#132e65"></circle><circle r="5" cx="955.87" cy="86.12" fill="#132e65"></circle><circle r="5" cx="990.99" cy="253.41" fill="#132e65"></circle><circle r="5" cx="971.67" cy="404.15" fill="#132e65"></circle><circle r="5" cx="948.85" cy="499.4" fill="#132e65"></circle><circle r="5" cx="978.83" cy="698.17" fill="#132e65"></circle><circle r="5" cx="1131.75" cy="-101.18" fill="#132e65"></circle><circle r="5" cx="1144.78" cy="216.62" fill="#132e65"></circle><circle r="5" cx="1097.59" cy="409.5" fill="#132e65"></circle><circle r="5" cx="1135.48" cy="558.06" fill="#132e65"></circle><circle r="5" cx="1137.83" cy="646.45" fill="#132e65"></circle><circle r="5" cx="1294.69" cy="-69.64" fill="#132e65"></circle><circle r="5" cx="1240.09" cy="92.93" fill="#132e65"></circle><circle r="5" cx="1269.29" cy="226.88" fill="#132e65"></circle><circle r="5" cx="1255.35" cy="367.42" fill="#132e65"></circle><circle r="5" cx="1250.53" cy="654.08" fill="#132e65"></circle><circle r="5" cx="1422.41" cy="-78.54" fill="#132e65"></circle><circle r="5" cx="1422.06" cy="102.45" fill="#132e65"></circle><circle r="5" cx="1448.46" cy="240.42" fill="#132e65"></circle><circle r="5" cx="1442.93" cy="372.35" fill="#132e65"></circle><circle r="5" cx="1454.6" cy="506.42" fill="#132e65"></circle><circle r="5" cx="1404.7" cy="657.7" fill="#132e65"></circle><circle r="5" cx="1606.37" cy="-66.59" fill="#132e65"></circle><circle r="5" cx="1573.9" cy="84.96" fill="#132e65"></circle><circle r="5" cx="1550.08" cy="351.51" fill="#132e65"></circle><circle r="5" cx="1562.49" cy="516.71" fill="#132e65"></circle><circle r="5" cx="1585.54" cy="687.07" fill="#132e65"></circle><path d="M-70.05 536.93L-70.05 536.93" stroke="hsl(228.5, 77.2%, 51.5%)" stroke-width="1.5"></path><path d="M-70.05 536.93L-94.03 646.69" stroke="hsl(228.5, 77.2%, 51.5%)" stroke-width="1.5"></path><path d="M-70.05 536.93L51.62 495.99" stroke="hsl(228.5, 77.2%, 51.5%)" stroke-width="1.5"></path><path d="M-70.05 536.93L66.39 664.75" stroke="hsl(228.5, 77.2%, 51.5%)" stroke-width="1.5"></path><path d="M-70.05 536.93L232.13 679.72" stroke="hsl(228.5, 77.2%, 51.5%)" stroke-width="1.5"></path><path d="M51.62 495.99L51.62 495.99" stroke="hsl(228.5, 77.2%, 51.5%)" stroke-width="1.5"></path><path d="M51.62 495.99L66.39 664.75" stroke="hsl(228.5, 77.2%, 51.5%)" stroke-width="1.5"></path><path d="M51.62 495.99L-94.03 646.69" stroke="hsl(228.5, 77.2%, 51.5%)" stroke-width="1.5"></path><path d="M51.62 495.99L232.13 679.72" stroke="hsl(228.5, 77.2%, 51.5%)" stroke-width="1.5"></path><path d="M51.62 495.99L349.45 541.36" stroke="hsl(228.5, 77.2%, 51.5%)" stroke-width="1.5"></path><path d="M51.62 495.99L342.28 680.9" stroke="hsl(228.5, 77.2%, 51.5%)" stroke-width="1.5"></path><path d="M809.91 548.66L809.91 548.66" stroke="hsl(228.5, 77.2%, 51.5%)" stroke-width="1.5"></path><path d="M809.91 548.66L702.79 516.64" stroke="hsl(228.5, 77.2%, 51.5%)" stroke-width="1.5"></path><path d="M809.91 548.66L856.75 671.1" stroke="hsl(228.5, 77.2%, 51.5%)" stroke-width="1.5"></path><path d="M809.91 548.66L657 681.73" stroke="hsl(228.5, 77.2%, 51.5%)" stroke-width="1.5"></path><path d="M809.91 548.66L1009.72 513.14" stroke="hsl(228.5, 77.2%, 51.5%)" stroke-width="1.5"></path><path d="M809.91 548.66L861.7 344.57" stroke="hsl(228.5, 77.2%, 51.5%)" stroke-width="1.5"></path><path d="M856.75 671.1L856.75 671.1" stroke="hsl(228.5, 77.2%, 51.5%)" stroke-width="1.5"></path><path d="M856.75 671.1L657 681.73" stroke="hsl(228.5, 77.2%, 51.5%)" stroke-width="1.5"></path><path d="M1097.88 193.68L1097.88 193.68" stroke="hsl(228.5, 77.2%, 51.5%)" stroke-width="1.5"></path><path d="M1097.88 193.68L1007.26 257.67" stroke="hsl(228.5, 77.2%, 51.5%)" stroke-width="1.5"></path><path d="M1097.88 193.68L1155.97 62.04" stroke="hsl(228.5, 77.2%, 51.5%)" stroke-width="1.5"></path><path d="M1097.88 193.68L1268.74 209.42" stroke="hsl(228.5, 77.2%, 51.5%)" stroke-width="1.5"></path><path d="M1097.88 193.68L997.3 377.42" stroke="hsl(228.5, 77.2%, 51.5%)" stroke-width="1.5"></path><path d="M1097.88 193.68L1259.49 57.29" stroke="hsl(228.5, 77.2%, 51.5%)" stroke-width="1.5"></path><path d="M1161.99 685.38L1161.99 685.38" stroke="hsl(228.5, 77.2%, 51.5%)" stroke-width="1.5"></path><path d="M1161.99 685.38L1249.56 702.96" stroke="hsl(228.5, 77.2%, 51.5%)" stroke-width="1.5"></path><path d="M1161.99 685.38L1247.8 557.21" stroke="hsl(228.5, 77.2%, 51.5%)" stroke-width="1.5"></path><path d="M1161.99 685.38L1094.71 516.36" stroke="hsl(228.5, 77.2%, 51.5%)" stroke-width="1.5"></path><path d="M1161.99 685.38L1009.72 513.14" stroke="hsl(228.5, 77.2%, 51.5%)" stroke-width="1.5"></path><path d="M1253.05 -40.52L1253.05 -40.52" stroke="hsl(228.5, 77.2%, 51.5%)" stroke-width="1.5"></path><path d="M1253.05 -40.52L1259.49 57.29" stroke="hsl(228.5, 77.2%, 51.5%)" stroke-width="1.5"></path><path d="M1253.05 -40.52L1155.97 62.04" stroke="hsl(228.5, 77.2%, 51.5%)" stroke-width="1.5"></path><path d="M1253.05 -40.52L1445.1 38.53" stroke="hsl(228.5, 77.2%, 51.5%)" stroke-width="1.5"></path><path d="M1253.05 -40.52L1268.74 209.42" stroke="hsl(228.5, 77.2%, 51.5%)" stroke-width="1.5"></path><path d="M1424.82 380.85L1424.82 380.85" stroke="hsl(228.5, 77.2%, 51.5%)" stroke-width="1.5"></path><path d="M1424.82 380.85L1447.85 491.48" stroke="hsl(228.5, 77.2%, 51.5%)" stroke-width="1.5"></path><path d="M1424.82 380.85L1403.87 236.64" stroke="hsl(228.5, 77.2%, 51.5%)" stroke-width="1.5"></path><path d="M1424.82 380.85L1589.89 396.59" stroke="hsl(228.5, 77.2%, 51.5%)" stroke-width="1.5"></path><path d="M1589.89 396.59L1589.89 396.59" stroke="hsl(228.5, 77.2%, 51.5%)" stroke-width="1.5"></path><path d="M1589.89 396.59L1570.11 561.96" stroke="hsl(228.5, 77.2%, 51.5%)" stroke-width="1.5"></path><path d="M1589.89 396.59L1447.85 491.48" stroke="hsl(228.5, 77.2%, 51.5%)" stroke-width="1.5"></path><path d="M1570.11 561.96L1570.11 561.96" stroke="hsl(228.5, 77.2%, 51.5%)" stroke-width="1.5"></path><path d="M1570.11 561.96L1447.85 491.48" stroke="hsl(228.5, 77.2%, 51.5%)" stroke-width="1.5"></path><path d="M1570.11 561.96L1607.29 707.16" stroke="hsl(228.5, 77.2%, 51.5%)" stroke-width="1.5"></path><path d="M1570.11 561.96L1399.97 666.87" stroke="hsl(228.5, 77.2%, 51.5%)" stroke-width="1.5"></path><path d="M-94.03 646.69L-94.03 646.69" stroke="hsl(228.5, 77.2%, 51.5%)" stroke-width="1.5"></path><path d="M-94.03 646.69L66.39 664.75" stroke="hsl(228.5, 77.2%, 51.5%)" stroke-width="1.5"></path><path d="M-94.03 646.69L232.13 679.72" stroke="hsl(228.5, 77.2%, 51.5%)" stroke-width="1.5"></path><path d="M-94.03 646.69L342.28 680.9" stroke="hsl(228.5, 77.2%, 51.5%)" stroke-width="1.5"></path><path d="M66.39 664.75L66.39 664.75" stroke="hsl(228.5, 77.2%, 51.5%)" stroke-width="1.5"></path><path d="M66.39 664.75L232.13 679.72" stroke="hsl(228.5, 77.2%, 51.5%)" stroke-width="1.5"></path><path d="M66.39 664.75L342.28 680.9" stroke="hsl(228.5, 77.2%, 51.5%)" stroke-width="1.5"></path><path d="M232.13 679.72L232.13 679.72" stroke="hsl(228.5, 77.2%, 51.5%)" stroke-width="1.5"></path><path d="M232.13 679.72L342.28 680.9" stroke="hsl(228.5, 77.2%, 51.5%)" stroke-width="1.5"></path><path d="M232.13 679.72L349.45 541.36" stroke="hsl(228.5, 77.2%, 51.5%)" stroke-width="1.5"></path><path d="M232.13 679.72L517.22 702.83" stroke="hsl(228.5, 77.2%, 51.5%)" stroke-width="1.5"></path><path d="M349.45 541.36L349.45 541.36" stroke="hsl(228.5, 77.2%, 51.5%)" stroke-width="1.5"></path><path d="M349.45 541.36L342.28 680.9" stroke="hsl(228.5, 77.2%, 51.5%)" stroke-width="1.5"></path><path d="M349.45 541.36L519.42 506.71" stroke="hsl(228.5, 77.2%, 51.5%)" stroke-width="1.5"></path><path d="M349.45 541.36L517.22 702.83" stroke="hsl(228.5, 77.2%, 51.5%)" stroke-width="1.5"></path><path d="M342.28 680.9L342.28 680.9" stroke="hsl(228.5, 77.2%, 51.5%)" stroke-width="1.5"></path><path d="M342.28 680.9L517.22 702.83" stroke="hsl(228.5, 77.2%, 51.5%)" stroke-width="1.5"></path><path d="M519.42 506.71L519.42 506.71" stroke="hsl(228.5, 77.2%, 51.5%)" stroke-width="1.5"></path><path d="M519.42 506.71L702.79 516.64" stroke="hsl(228.5, 77.2%, 51.5%)" stroke-width="1.5"></path><path d="M519.42 506.71L517.22 702.83" stroke="hsl(228.5, 77.2%, 51.5%)" stroke-width="1.5"></path><path d="M519.42 506.71L657 681.73" stroke="hsl(228.5, 77.2%, 51.5%)" stroke-width="1.5"></path><path d="M517.22 702.83L517.22 702.83" stroke="hsl(228.5, 77.2%, 51.5%)" stroke-width="1.5"></path><path d="M517.22 702.83L657 681.73" stroke="hsl(228.5, 77.2%, 51.5%)" stroke-width="1.5"></path><path d="M517.22 702.83L702.79 516.64" stroke="hsl(228.5, 77.2%, 51.5%)" stroke-width="1.5"></path><path d="M702.79 516.64L702.79 516.64" stroke="hsl(228.5, 77.2%, 51.5%)" stroke-width="1.5"></path><path d="M702.79 516.64L657 681.73" stroke="hsl(228.5, 77.2%, 51.5%)" stroke-width="1.5"></path><path d="M702.79 516.64L856.75 671.1" stroke="hsl(228.5, 77.2%, 51.5%)" stroke-width="1.5"></path><path d="M657 681.73L657 681.73" stroke="hsl(228.5, 77.2%, 51.5%)" stroke-width="1.5"></path><path d="M861.7 344.57L861.7 344.57" stroke="hsl(228.5, 77.2%, 51.5%)" stroke-width="1.5"></path><path d="M861.7 344.57L997.3 377.42" stroke="hsl(228.5, 77.2%, 51.5%)" stroke-width="1.5"></path><path d="M861.7 344.57L1007.26 257.67" stroke="hsl(228.5, 77.2%, 51.5%)" stroke-width="1.5"></path><path d="M861.7 344.57L1009.72 513.14" stroke="hsl(228.5, 77.2%, 51.5%)" stroke-width="1.5"></path><path d="M1007.26 257.67L1007.26 257.67" stroke="hsl(228.5, 77.2%, 51.5%)" stroke-width="1.5"></path><path d="M1007.26 257.67L997.3 377.42" stroke="hsl(228.5, 77.2%, 51.5%)" stroke-width="1.5"></path><path d="M997.3 377.42L997.3 377.42" stroke="hsl(228.5, 77.2%, 51.5%)" stroke-width="1.5"></path><path d="M997.3 377.42L1009.72 513.14" stroke="hsl(228.5, 77.2%, 51.5%)" stroke-width="1.5"></path><path d="M997.3 377.42L1094.71 516.36" stroke="hsl(228.5, 77.2%, 51.5%)" stroke-width="1.5"></path><path d="M997.3 377.42L1247.29 348.03" stroke="hsl(228.5, 77.2%, 51.5%)" stroke-width="1.5"></path><path d="M1009.72 513.14L1009.72 513.14" stroke="hsl(228.5, 77.2%, 51.5%)" stroke-width="1.5"></path><path d="M1009.72 513.14L1094.71 516.36" stroke="hsl(228.5, 77.2%, 51.5%)" stroke-width="1.5"></path><path d="M1155.97 62.04L1155.97 62.04" stroke="hsl(228.5, 77.2%, 51.5%)" stroke-width="1.5"></path><path d="M1155.97 62.04L1259.49 57.29" stroke="hsl(228.5, 77.2%, 51.5%)" stroke-width="1.5"></path><path d="M1155.97 62.04L1268.74 209.42" stroke="hsl(228.5, 77.2%, 51.5%)" stroke-width="1.5"></path><path d="M1155.97 62.04L1007.26 257.67" stroke="hsl(228.5, 77.2%, 51.5%)" stroke-width="1.5"></path><path d="M1094.71 516.36L1094.71 516.36" stroke="hsl(228.5, 77.2%, 51.5%)" stroke-width="1.5"></path><path d="M1094.71 516.36L1247.8 557.21" stroke="hsl(228.5, 77.2%, 51.5%)" stroke-width="1.5"></path><path d="M1094.71 516.36L1247.29 348.03" stroke="hsl(228.5, 77.2%, 51.5%)" stroke-width="1.5"></path><path d="M1259.49 57.29L1259.49 57.29" stroke="hsl(228.5, 77.2%, 51.5%)" stroke-width="1.5"></path><path d="M1259.49 57.29L1268.74 209.42" stroke="hsl(228.5, 77.2%, 51.5%)" stroke-width="1.5"></path><path d="M1259.49 57.29L1445.1 38.53" stroke="hsl(228.5, 77.2%, 51.5%)" stroke-width="1.5"></path><path d="M1268.74 209.42L1268.74 209.42" stroke="hsl(228.5, 77.2%, 51.5%)" stroke-width="1.5"></path><path d="M1268.74 209.42L1403.87 236.64" stroke="hsl(228.5, 77.2%, 51.5%)" stroke-width="1.5"></path><path d="M1268.74 209.42L1247.29 348.03" stroke="hsl(228.5, 77.2%, 51.5%)" stroke-width="1.5"></path><path d="M1247.29 348.03L1247.29 348.03" stroke="hsl(228.5, 77.2%, 51.5%)" stroke-width="1.5"></path><path d="M1247.29 348.03L1424.82 380.85" stroke="hsl(228.5, 77.2%, 51.5%)" stroke-width="1.5"></path><path d="M1247.29 348.03L1403.87 236.64" stroke="hsl(228.5, 77.2%, 51.5%)" stroke-width="1.5"></path><path d="M1247.29 348.03L1247.8 557.21" stroke="hsl(228.5, 77.2%, 51.5%)" stroke-width="1.5"></path><path d="M1247.29 348.03L1097.88 193.68" stroke="hsl(228.5, 77.2%, 51.5%)" stroke-width="1.5"></path><path d="M1247.8 557.21L1247.8 557.21" stroke="hsl(228.5, 77.2%, 51.5%)" stroke-width="1.5"></path><path d="M1247.8 557.21L1249.56 702.96" stroke="hsl(228.5, 77.2%, 51.5%)" stroke-width="1.5"></path><path d="M1247.8 557.21L1399.97 666.87" stroke="hsl(228.5, 77.2%, 51.5%)" stroke-width="1.5"></path><path d="M1249.56 702.96L1249.56 702.96" stroke="hsl(228.5, 77.2%, 51.5%)" stroke-width="1.5"></path><path d="M1249.56 702.96L1399.97 666.87" stroke="hsl(228.5, 77.2%, 51.5%)" stroke-width="1.5"></path><path d="M1249.56 702.96L1094.71 516.36" stroke="hsl(228.5, 77.2%, 51.5%)" stroke-width="1.5"></path><path d="M1249.56 702.96L1447.85 491.48" stroke="hsl(228.5, 77.2%, 51.5%)" stroke-width="1.5"></path><path d="M1445.1 38.53L1445.1 38.53" stroke="hsl(228.5, 77.2%, 51.5%)" stroke-width="1.5"></path><path d="M1445.1 38.53L1587.13 108.64" stroke="hsl(228.5, 77.2%, 51.5%)" stroke-width="1.5"></path><path d="M1403.87 236.64L1403.87 236.64" stroke="hsl(228.5, 77.2%, 51.5%)" stroke-width="1.5"></path><path d="M1403.87 236.64L1559.82 188.2" stroke="hsl(228.5, 77.2%, 51.5%)" stroke-width="1.5"></path><path d="M1403.87 236.64L1445.1 38.53" stroke="hsl(228.5, 77.2%, 51.5%)" stroke-width="1.5"></path><path d="M1447.85 491.48L1447.85 491.48" stroke="hsl(228.5, 77.2%, 51.5%)" stroke-width="1.5"></path><path d="M1399.97 666.87L1399.97 666.87" stroke="hsl(228.5, 77.2%, 51.5%)" stroke-width="1.5"></path><path d="M1399.97 666.87L1447.85 491.48" stroke="hsl(228.5, 77.2%, 51.5%)" stroke-width="1.5"></path><path d="M1610.32 -80.38L1610.32 -80.38" stroke="hsl(228.5, 77.2%, 51.5%)" stroke-width="1.5"></path><path d="M1610.32 -80.38L1587.13 108.64" stroke="hsl(228.5, 77.2%, 51.5%)" stroke-width="1.5"></path><path d="M1610.32 -80.38L1445.1 38.53" stroke="hsl(228.5, 77.2%, 51.5%)" stroke-width="1.5"></path><path d="M1610.32 -80.38L1559.82 188.2" stroke="hsl(228.5, 77.2%, 51.5%)" stroke-width="1.5"></path><path d="M1610.32 -80.38L1253.05 -40.52" stroke="hsl(228.5, 77.2%, 51.5%)" stroke-width="1.5"></path><path d="M1610.32 -80.38L1259.49 57.29" stroke="hsl(228.5, 77.2%, 51.5%)" stroke-width="1.5"></path><path d="M1610.32 -80.38L1403.87 236.64" stroke="hsl(228.5, 77.2%, 51.5%)" stroke-width="1.5"></path><path d="M1587.13 108.64L1587.13 108.64" stroke="hsl(228.5, 77.2%, 51.5%)" stroke-width="1.5"></path><path d="M1587.13 108.64L1559.82 188.2" stroke="hsl(228.5, 77.2%, 51.5%)" stroke-width="1.5"></path><path d="M1587.13 108.64L1403.87 236.64" stroke="hsl(228.5, 77.2%, 51.5%)" stroke-width="1.5"></path><path d="M1559.82 188.2L1559.82 188.2" stroke="hsl(228.5, 77.2%, 51.5%)" stroke-width="1.5"></path><path d="M1559.82 188.2L1445.1 38.53" stroke="hsl(228.5, 77.2%, 51.5%)" stroke-width="1.5"></path><path d="M1559.82 188.2L1589.89 396.59" stroke="hsl(228.5, 77.2%, 51.5%)" stroke-width="1.5"></path><path d="M1559.82 188.2L1424.82 380.85" stroke="hsl(228.5, 77.2%, 51.5%)" stroke-width="1.5"></path><path d="M1607.29 707.16L1607.29 707.16" stroke="hsl(228.5, 77.2%, 51.5%)" stroke-width="1.5"></path><path d="M1607.29 707.16L1399.97 666.87" stroke="hsl(228.5, 77.2%, 51.5%)" stroke-width="1.5"></path><path d="M1607.29 707.16L1447.85 491.48" stroke="hsl(228.5, 77.2%, 51.5%)" stroke-width="1.5"></path><path d="M1607.29 707.16L1589.89 396.59" stroke="hsl(228.5, 77.2%, 51.5%)" stroke-width="1.5"></path><path d="M1607.29 707.16L1249.56 702.96" stroke="hsl(228.5, 77.2%, 51.5%)" stroke-width="1.5"></path><circle r="25" cx="-70.05" cy="536.93" fill="url(&quot;#SvgjsRadialGradient1011&quot;)"></circle><circle r="25" cx="51.62" cy="495.99" fill="url(&quot;#SvgjsRadialGradient1011&quot;)"></circle><circle r="25" cx="809.91" cy="548.66" fill="url(&quot;#SvgjsRadialGradient1011&quot;)"></circle><circle r="25" cx="856.75" cy="671.1" fill="url(&quot;#SvgjsRadialGradient1011&quot;)"></circle><circle r="25" cx="1097.88" cy="193.68" fill="url(&quot;#SvgjsRadialGradient1011&quot;)"></circle><circle r="25" cx="1161.99" cy="685.38" fill="url(&quot;#SvgjsRadialGradient1011&quot;)"></circle><circle r="25" cx="1253.05" cy="-40.52" fill="url(&quot;#SvgjsRadialGradient1011&quot;)"></circle><circle r="25" cx="1424.82" cy="380.85" fill="url(&quot;#SvgjsRadialGradient1011&quot;)"></circle><circle r="25" cx="1589.89" cy="396.59" fill="url(&quot;#SvgjsRadialGradient1011&quot;)"></circle><circle r="25" cx="1570.11" cy="561.96" fill="url(&quot;#SvgjsRadialGradient1011&quot;)"></circle><circle r="5" cx="-94.03" cy="646.69" fill="#8b9ad9"></circle><circle r="5" cx="66.39" cy="664.75" fill="#8b9ad9"></circle><circle r="5" cx="232.13" cy="679.72" fill="#8b9ad9"></circle><circle r="5" cx="349.45" cy="541.36" fill="#8b9ad9"></circle><circle r="5" cx="342.28" cy="680.9" fill="#8b9ad9"></circle><circle r="5" cx="519.42" cy="506.71" fill="#8b9ad9"></circle><circle r="5" cx="517.22" cy="702.83" fill="#8b9ad9"></circle><circle r="5" cx="702.79" cy="516.64" fill="#8b9ad9"></circle><circle r="5" cx="657" cy="681.73" fill="#8b9ad9"></circle><circle r="5" cx="861.7" cy="344.57" fill="#8b9ad9"></circle><circle r="5" cx="1007.26" cy="257.67" fill="#8b9ad9"></circle><circle r="5" cx="997.3" cy="377.42" fill="#8b9ad9"></circle><circle r="5" cx="1009.72" cy="513.14" fill="#8b9ad9"></circle><circle r="5" cx="1155.97" cy="62.04" fill="#8b9ad9"></circle><circle r="5" cx="1094.71" cy="516.36" fill="#8b9ad9"></circle><circle r="5" cx="1259.49" cy="57.29" fill="#8b9ad9"></circle><circle r="5" cx="1268.74" cy="209.42" fill="#8b9ad9"></circle><circle r="5" cx="1247.29" cy="348.03" fill="#8b9ad9"></circle><circle r="5" cx="1247.8" cy="557.21" fill="#8b9ad9"></circle><circle r="5" cx="1249.56" cy="702.96" fill="#8b9ad9"></circle><circle r="5" cx="1445.1" cy="38.53" fill="#8b9ad9"></circle><circle r="5" cx="1403.87" cy="236.64" fill="#8b9ad9"></circle><circle r="5" cx="1447.85" cy="491.48" fill="#8b9ad9"></circle><circle r="5" cx="1399.97" cy="666.87" fill="#8b9ad9"></circle><circle r="5" cx="1610.32" cy="-80.38" fill="#8b9ad9"></circle><circle r="5" cx="1587.13" cy="108.64" fill="#8b9ad9"></circle><circle r="5" cx="1559.82" cy="188.2" fill="#8b9ad9"></circle><circle r="5" cx="1607.29" cy="707.16" fill="#8b9ad9"></circle></g><defs><mask id="SvgjsMask1010"><rect width="1440" height="560" fill="#ffffff"></rect></mask><radialGradient id="SvgjsRadialGradient1011"><stop stop-color="#ffffff" offset="0.1"></stop><stop stop-color="#1735b3" offset="0.2"></stop><stop stop-color="rgba(23, 53, 179, 0)" offset="1"></stop></radialGradient></defs></svg>