<svg xmlns="http://www.w3.org/2000/svg" version="1.1" xmlns:xlink="http://www.w3.org/1999/xlink" xmlns:svgjs="http://svgjs.dev/svgjs" width="1440" height="560" preserveAspectRatio="none" viewBox="0 0 1440 560"><g mask="url(&quot;#SvgjsMask2005&quot;)" fill="none"><rect width="1440" height="560" x="0" y="0" fill="url(&quot;#SvgjsRadialGradient2006&quot;)"></rect><use xlink:href="#SvgjsSymbol2013" x="0" y="0"></use><use xlink:href="#SvgjsSymbol2013" x="720" y="0"></use></g><defs><mask id="SvgjsMask2005"><rect width="1440" height="560" fill="#ffffff"></rect></mask><radialGradient cx="50%" cy="50%" r="772.53" gradientUnits="userSpaceOnUse" id="SvgjsRadialGradient2006"><stop stop-color="#0e2a47" offset="0"></stop><stop stop-color="rgba(1, 0, 1, 1)" offset="1"></stop></radialGradient><path d="M-1 0 a1 1 0 1 0 2 0 a1 1 0 1 0 -2 0z" id="SvgjsPath2007"></path><path d="M-3 0 a3 3 0 1 0 6 0 a3 3 0 1 0 -6 0z" id="SvgjsPath2010"></path><path d="M-5 0 a5 5 0 1 0 10 0 a5 5 0 1 0 -10 0z" id="SvgjsPath2008"></path><path d="M2 -2 L-2 2z" id="SvgjsPath2011"></path><path d="M6 -6 L-6 6z" id="SvgjsPath2009"></path><path d="M30 -30 L-30 30z" id="SvgjsPath2012"></path></defs><symbol id="SvgjsSymbol2013"><use xlink:href="#SvgjsPath2007" x="30" y="30" stroke="rgba(63, 165, 9, 1)"></use><use xlink:href="#SvgjsPath2008" x="30" y="90" stroke="rgba(63, 165, 9, 1)"></use><use xlink:href="#SvgjsPath2009" x="30" y="150" stroke="rgba(63, 165, 9, 1)"></use><use xlink:href="#SvgjsPath2010" x="30" y="210" stroke="rgba(63, 165, 9, 1)"></use><use xlink:href="#SvgjsPath2008" x="30" y="270" stroke="rgba(63, 165, 9, 1)"></use><use xlink:href="#SvgjsPath2009" x="30" y="330" stroke="rgba(63, 165, 9, 1)"></use><use xlink:href="#SvgjsPath2011" x="30" y="390" stroke="rgba(63, 165, 9, 1)"></use><use xlink:href="#SvgjsPath2011" x="30" y="450" stroke="rgba(63, 165, 9, 1)"></use><use xlink:href="#SvgjsPath2009" x="30" y="510" stroke="rgba(63, 165, 9, 1)"></use><use xlink:href="#SvgjsPath2008" x="30" y="570" stroke="rgba(63, 165, 9, 1)"></use><use xlink:href="#SvgjsPath2008" x="90" y="30" stroke="rgba(63, 165, 9, 1)"></use><use xlink:href="#SvgjsPath2007" x="90" y="90" stroke="rgba(63, 165, 9, 1)"></use><use xlink:href="#SvgjsPath2009" x="90" y="150" stroke="rgba(63, 165, 9, 1)"></use><use xlink:href="#SvgjsPath2011" x="90" y="210" stroke="rgba(63, 165, 9, 1)"></use><use xlink:href="#SvgjsPath2009" x="90" y="270" stroke="rgba(63, 165, 9, 1)"></use><use xlink:href="#SvgjsPath2008" x="90" y="330" stroke="rgba(63, 165, 9, 1)"></use><use xlink:href="#SvgjsPath2007" x="90" y="390" stroke="rgba(63, 165, 9, 1)"></use><use xlink:href="#SvgjsPath2008" x="90" y="450" stroke="rgba(63, 165, 9, 1)"></use><use xlink:href="#SvgjsPath2010" x="90" y="510" stroke="rgba(63, 165, 9, 1)"></use><use xlink:href="#SvgjsPath2008" x="90" y="570" stroke="rgba(63, 165, 9, 1)"></use><use xlink:href="#SvgjsPath2011" x="150" y="30" stroke="rgba(63, 165, 9, 1)"></use><use xlink:href="#SvgjsPath2011" x="150" y="90" stroke="rgba(63, 165, 9, 1)"></use><use xlink:href="#SvgjsPath2008" x="150" y="150" stroke="rgba(63, 165, 9, 1)"></use><use xlink:href="#SvgjsPath2007" x="150" y="210" stroke="rgba(63, 165, 9, 1)"></use><use xlink:href="#SvgjsPath2008" x="150" y="270" stroke="rgba(63, 165, 9, 1)"></use><use xlink:href="#SvgjsPath2008" x="150" y="330" stroke="rgba(63, 165, 9, 1)"></use><use xlink:href="#SvgjsPath2009" x="150" y="390" stroke="rgba(63, 165, 9, 1)"></use><use xlink:href="#SvgjsPath2009" x="150" y="450" stroke="rgba(63, 165, 9, 1)"></use><use xlink:href="#SvgjsPath2007" x="150" y="510" stroke="rgba(63, 165, 9, 1)"></use><use xlink:href="#SvgjsPath2009" x="150" y="570" stroke="rgba(63, 165, 9, 1)"></use><use xlink:href="#SvgjsPath2010" x="210" y="30" stroke="rgba(63, 165, 9, 1)"></use><use xlink:href="#SvgjsPath2008" x="210" y="90" stroke="rgba(63, 165, 9, 1)"></use><use xlink:href="#SvgjsPath2009" x="210" y="150" stroke="rgba(63, 165, 9, 1)"></use><use xlink:href="#SvgjsPath2008" x="210" y="210" stroke="rgba(63, 165, 9, 1)"></use><use xlink:href="#SvgjsPath2008" x="210" y="270" stroke="rgba(63, 165, 9, 1)"></use><use xlink:href="#SvgjsPath2011" x="210" y="330" stroke="rgba(63, 165, 9, 1)"></use><use xlink:href="#SvgjsPath2011" x="210" y="390" stroke="rgba(63, 165, 9, 1)"></use><use xlink:href="#SvgjsPath2008" x="210" y="450" stroke="rgba(63, 165, 9, 1)"></use><use xlink:href="#SvgjsPath2008" x="210" y="510" stroke="rgba(63, 165, 9, 1)"></use><use xlink:href="#SvgjsPath2008" x="210" y="570" stroke="rgba(63, 165, 9, 1)"></use><use xlink:href="#SvgjsPath2011" x="270" y="30" stroke="rgba(63, 165, 9, 1)"></use><use xlink:href="#SvgjsPath2008" x="270" y="90" stroke="rgba(63, 165, 9, 1)"></use><use xlink:href="#SvgjsPath2009" x="270" y="150" stroke="rgba(63, 165, 9, 1)"></use><use xlink:href="#SvgjsPath2009" x="270" y="210" stroke="rgba(63, 165, 9, 1)"></use><use xlink:href="#SvgjsPath2008" x="270" y="270" stroke="rgba(63, 165, 9, 1)"></use><use xlink:href="#SvgjsPath2010" x="270" y="330" stroke="rgba(63, 165, 9, 1)"></use><use xlink:href="#SvgjsPath2008" x="270" y="390" stroke="rgba(63, 165, 9, 1)"></use><use xlink:href="#SvgjsPath2008" x="270" y="450" stroke="rgba(63, 165, 9, 1)"></use><use xlink:href="#SvgjsPath2009" x="270" y="510" stroke="rgba(63, 165, 9, 1)"></use><use xlink:href="#SvgjsPath2009" x="270" y="570" stroke="rgba(63, 165, 9, 1)"></use><use xlink:href="#SvgjsPath2009" x="330" y="30" stroke="rgba(63, 165, 9, 1)"></use><use xlink:href="#SvgjsPath2007" x="330" y="90" stroke="rgba(63, 165, 9, 1)"></use><use xlink:href="#SvgjsPath2010" x="330" y="150" stroke="rgba(63, 165, 9, 1)"></use><use xlink:href="#SvgjsPath2007" x="330" y="210" stroke="rgba(63, 165, 9, 1)"></use><use xlink:href="#SvgjsPath2007" x="330" y="270" stroke="rgba(63, 165, 9, 1)"></use><use xlink:href="#SvgjsPath2009" x="330" y="330" stroke="rgba(63, 165, 9, 1)"></use><use xlink:href="#SvgjsPath2009" x="330" y="390" stroke="rgba(63, 165, 9, 1)"></use><use xlink:href="#SvgjsPath2008" x="330" y="450" stroke="rgba(63, 165, 9, 1)"></use><use xlink:href="#SvgjsPath2007" x="330" y="510" stroke="rgba(63, 165, 9, 1)"></use><use xlink:href="#SvgjsPath2008" x="330" y="570" stroke="rgba(63, 165, 9, 1)"></use><use xlink:href="#SvgjsPath2012" x="390" y="30" stroke="rgba(63, 165, 9, 1)" stroke-width="3"></use><use xlink:href="#SvgjsPath2008" x="390" y="90" stroke="rgba(63, 165, 9, 1)"></use><use xlink:href="#SvgjsPath2008" x="390" y="150" stroke="rgba(63, 165, 9, 1)"></use><use xlink:href="#SvgjsPath2008" x="390" y="210" stroke="rgba(63, 165, 9, 1)"></use><use xlink:href="#SvgjsPath2011" x="390" y="270" stroke="rgba(63, 165, 9, 1)"></use><use xlink:href="#SvgjsPath2008" x="390" y="330" stroke="rgba(63, 165, 9, 1)"></use><use xlink:href="#SvgjsPath2007" x="390" y="390" stroke="rgba(63, 165, 9, 1)"></use><use xlink:href="#SvgjsPath2010" x="390" y="450" stroke="rgba(63, 165, 9, 1)"></use><use xlink:href="#SvgjsPath2012" x="390" y="510" stroke="rgba(63, 165, 9, 1)" stroke-width="3"></use><use xlink:href="#SvgjsPath2010" x="390" y="570" stroke="rgba(63, 165, 9, 1)"></use><use xlink:href="#SvgjsPath2009" x="450" y="30" stroke="rgba(63, 165, 9, 1)"></use><use xlink:href="#SvgjsPath2011" x="450" y="90" stroke="rgba(63, 165, 9, 1)"></use><use xlink:href="#SvgjsPath2009" x="450" y="150" stroke="rgba(63, 165, 9, 1)"></use><use xlink:href="#SvgjsPath2009" x="450" y="210" stroke="rgba(63, 165, 9, 1)"></use><use xlink:href="#SvgjsPath2008" x="450" y="270" stroke="rgba(63, 165, 9, 1)"></use><use xlink:href="#SvgjsPath2009" x="450" y="330" stroke="rgba(63, 165, 9, 1)"></use><use xlink:href="#SvgjsPath2010" x="450" y="390" stroke="rgba(63, 165, 9, 1)"></use><use xlink:href="#SvgjsPath2008" x="450" y="450" stroke="rgba(63, 165, 9, 1)"></use><use xlink:href="#SvgjsPath2010" x="450" y="510" stroke="rgba(63, 165, 9, 1)"></use><use xlink:href="#SvgjsPath2007" x="450" y="570" stroke="rgba(63, 165, 9, 1)"></use><use xlink:href="#SvgjsPath2008" x="510" y="30" stroke="rgba(63, 165, 9, 1)"></use><use xlink:href="#SvgjsPath2008" x="510" y="90" stroke="rgba(63, 165, 9, 1)"></use><use xlink:href="#SvgjsPath2008" x="510" y="150" stroke="rgba(63, 165, 9, 1)"></use><use xlink:href="#SvgjsPath2010" x="510" y="210" stroke="rgba(63, 165, 9, 1)"></use><use xlink:href="#SvgjsPath2010" x="510" y="270" stroke="rgba(63, 165, 9, 1)"></use><use xlink:href="#SvgjsPath2009" x="510" y="330" stroke="rgba(63, 165, 9, 1)"></use><use xlink:href="#SvgjsPath2009" x="510" y="390" stroke="rgba(63, 165, 9, 1)"></use><use xlink:href="#SvgjsPath2009" x="510" y="450" stroke="rgba(63, 165, 9, 1)"></use><use xlink:href="#SvgjsPath2012" x="510" y="510" stroke="rgba(63, 165, 9, 1)" stroke-width="3"></use><use xlink:href="#SvgjsPath2008" x="510" y="570" stroke="rgba(63, 165, 9, 1)"></use><use xlink:href="#SvgjsPath2007" x="570" y="30" stroke="rgba(63, 165, 9, 1)"></use><use xlink:href="#SvgjsPath2008" x="570" y="90" stroke="rgba(63, 165, 9, 1)"></use><use xlink:href="#SvgjsPath2008" x="570" y="150" stroke="rgba(63, 165, 9, 1)"></use><use xlink:href="#SvgjsPath2008" x="570" y="210" stroke="rgba(63, 165, 9, 1)"></use><use xlink:href="#SvgjsPath2008" x="570" y="270" stroke="rgba(63, 165, 9, 1)"></use><use xlink:href="#SvgjsPath2008" x="570" y="330" stroke="rgba(63, 165, 9, 1)"></use><use xlink:href="#SvgjsPath2011" x="570" y="390" stroke="rgba(63, 165, 9, 1)"></use><use xlink:href="#SvgjsPath2008" x="570" y="450" stroke="rgba(63, 165, 9, 1)"></use><use xlink:href="#SvgjsPath2011" x="570" y="510" stroke="rgba(63, 165, 9, 1)"></use><use xlink:href="#SvgjsPath2009" x="570" y="570" stroke="rgba(63, 165, 9, 1)"></use><use xlink:href="#SvgjsPath2007" x="630" y="30" stroke="rgba(63, 165, 9, 1)"></use><use xlink:href="#SvgjsPath2011" x="630" y="90" stroke="rgba(63, 165, 9, 1)"></use><use xlink:href="#SvgjsPath2011" x="630" y="150" stroke="rgba(63, 165, 9, 1)"></use><use xlink:href="#SvgjsPath2010" x="630" y="210" stroke="rgba(63, 165, 9, 1)"></use><use xlink:href="#SvgjsPath2007" x="630" y="270" stroke="rgba(63, 165, 9, 1)"></use><use xlink:href="#SvgjsPath2008" x="630" y="330" stroke="rgba(63, 165, 9, 1)"></use><use xlink:href="#SvgjsPath2008" x="630" y="390" stroke="rgba(63, 165, 9, 1)"></use><use xlink:href="#SvgjsPath2012" x="630" y="450" stroke="rgba(63, 165, 9, 1)" stroke-width="3"></use><use xlink:href="#SvgjsPath2008" x="630" y="510" stroke="rgba(63, 165, 9, 1)"></use><use xlink:href="#SvgjsPath2008" x="630" y="570" stroke="rgba(63, 165, 9, 1)"></use><use xlink:href="#SvgjsPath2009" x="690" y="30" stroke="rgba(63, 165, 9, 1)"></use><use xlink:href="#SvgjsPath2008" x="690" y="90" stroke="rgba(63, 165, 9, 1)"></use><use xlink:href="#SvgjsPath2011" x="690" y="150" stroke="rgba(63, 165, 9, 1)"></use><use xlink:href="#SvgjsPath2010" x="690" y="210" stroke="rgba(63, 165, 9, 1)"></use><use xlink:href="#SvgjsPath2008" x="690" y="270" stroke="rgba(63, 165, 9, 1)"></use><use xlink:href="#SvgjsPath2010" x="690" y="330" stroke="rgba(63, 165, 9, 1)"></use><use xlink:href="#SvgjsPath2008" x="690" y="390" stroke="rgba(63, 165, 9, 1)"></use><use xlink:href="#SvgjsPath2008" x="690" y="450" stroke="rgba(63, 165, 9, 1)"></use><use xlink:href="#SvgjsPath2010" x="690" y="510" stroke="rgba(63, 165, 9, 1)"></use><use xlink:href="#SvgjsPath2007" x="690" y="570" stroke="rgba(63, 165, 9, 1)"></use></symbol></svg>